<svg id="visual" viewBox="0 0 960 540" width="960" height="540" xmlns="http://www.w3.org/2000/svg" xmlns:xlink="http://www.w3.org/1999/xlink" version="1.1"><rect x="0" y="0" width="960" height="540" fill="#FFFFFF"></rect><defs><linearGradient id="grad1_0" x1="43.8%" y1="100%" x2="100%" y2="0%"><stop offset="14.444444444444446%" stop-color="#fbae3c" stop-opacity="1"></stop><stop offset="85.55555555555554%" stop-color="#fbae3c" stop-opacity="1"></stop></linearGradient></defs><defs><linearGradient id="grad1_1" x1="43.8%" y1="100%" x2="100%" y2="0%"><stop offset="14.444444444444446%" stop-color="#fbae3c" stop-opacity="1"></stop><stop offset="85.55555555555554%" stop-color="#ffffff" stop-opacity="1"></stop></linearGradient></defs><defs><linearGradient id="grad2_0" x1="0%" y1="100%" x2="56.3%" y2="0%"><stop offset="14.444444444444446%" stop-color="#fbae3c" stop-opacity="1"></stop><stop offset="85.55555555555554%" stop-color="#fbae3c" stop-opacity="1"></stop></linearGradient></defs><defs><linearGradient id="grad2_1" x1="0%" y1="100%" x2="56.3%" y2="0%"><stop offset="14.444444444444446%" stop-color="#ffffff" stop-opacity="1"></stop><stop offset="85.55555555555554%" stop-color="#fbae3c" stop-opacity="1"></stop></linearGradient></defs><g transform="translate(960, 540)"><path d="M-405 0C-404.3 -58.3 -403.6 -116.5 -374.2 -155C-344.7 -193.4 -286.5 -212.1 -247.5 -247.5C-208.5 -282.9 -188.8 -335 -150.8 -364C-112.7 -393 -56.4 -399 0 -405L0 0Z" fill="#ffd69f"></path><path d="M-202.5 0C-202.2 -29.1 -201.8 -58.3 -187.1 -77.5C-172.4 -96.7 -143.2 -106.1 -123.7 -123.7C-104.3 -141.4 -94.4 -167.5 -75.4 -182C-56.4 -196.5 -28.2 -199.5 0 -202.5L0 0Z" fill="#fbae3c"></path></g><g transform="translate(0, 0)"><path d="M405 0C399.4 52.4 393.8 104.9 374.2 155C354.5 205.1 320.8 252.9 277.2 277.2C233.6 301.5 180.2 302.3 132.4 319.7C84.6 337 42.3 371 0 405L0 0Z" fill="#ffd69f"></path><path d="M202.5 0C199.7 26.2 196.9 52.4 187.1 77.5C177.3 102.6 160.4 126.4 138.6 138.6C116.8 150.7 90.1 151.1 66.2 159.8C42.3 168.5 21.1 185.5 0 202.5L0 0Z" fill="#fbae3c"></path></g></svg>